<?xml version="1.0" encoding="UTF-8"?>
<!DOCTYPE svg PUBLIC "-//W3C//DTD SVG 1.1//EN" "http://www.w3.org/Graphics/SVG/1.1/DTD/svg11.dtd">
<svg xmlns="http://www.w3.org/2000/svg" version="1.1" width="400px" height="150px" style="shape-rendering:geometricPrecision; text-rendering:geometricPrecision; image-rendering:optimizeQuality; fill-rule:evenodd; clip-rule:evenodd" xmlns:xlink="http://www.w3.org/1999/xlink">
<g><path style="opacity:1" fill="#fdfdfd" d="M -0.5,-0.5 C 132.833,-0.5 266.167,-0.5 399.5,-0.5C 399.5,49.5 399.5,99.5 399.5,149.5C 266.167,149.5 132.833,149.5 -0.5,149.5C -0.5,99.5 -0.5,49.5 -0.5,-0.5 Z"/></g>
<g><path style="opacity:1" fill="#525252" d="M 122.5,12.5 C 128,11.8314 130.167,14.1647 129,19.5C 121.985,26.3477 115.152,33.3477 108.5,40.5C 110.817,43.3174 113.317,45.9841 116,48.5C 122.5,42 129,35.5 135.5,29C 142.817,25.9896 145.317,28.1562 143,35.5C 136.667,41.8333 130.333,48.1667 124,54.5C 125.885,57.6165 127.718,60.9498 129.5,64.5C 128.81,67.3539 126.977,69.0206 124,69.5C 110.967,57.9674 98.8004,45.6341 87.5,32.5C 88.9541,27.5481 91.9541,26.3814 96.5,29C 97.7433,30.1545 98.7433,31.4878 99.5,33C 100.5,33.6667 101.5,33.6667 102.5,33C 109.369,26.2982 116.036,19.4649 122.5,12.5 Z"/></g>
<g><path style="opacity:1" fill="#ad4232" d="M 217.5,15.5 C 220.5,15.5 223.5,15.5 226.5,15.5C 221.151,39.8976 215.318,64.231 209,88.5C 206.501,89.7978 204.167,89.4644 202,87.5C 201.866,83.7375 202.199,80.0708 203,76.5C 198.613,82.2317 193.113,86.3984 186.5,89C 183.62,89.6841 180.787,89.5174 178,88.5C 173.834,90.544 169.668,90.7107 165.5,89C 164.54,87.5806 163.707,86.0806 163,84.5C 159.358,99.7104 156.358,115.044 154,130.5C 149.569,133.486 146.403,132.319 144.5,127C 152.185,100.606 158.519,74.2732 163.5,48C 169.786,45.7847 172.619,47.9514 172,54.5C 187.699,41.1722 194.365,44.8389 192,65.5C 190.221,71.7245 187.388,77.3912 183.5,82.5C 186.359,83.5985 189.026,83.0985 191.5,81C 197.378,76.7898 202.211,71.6232 206,65.5C 210.505,48.8251 214.338,32.1584 217.5,15.5 Z"/></g>
<g><path style="opacity:1" fill="#535353" d="M 79.5,37.5 C 86.4162,36.5699 88.5829,39.2365 86,45.5C 79.3333,52.1667 72.6667,58.8333 66,65.5C 65.0885,69.4525 65.7552,73.1191 68,76.5C 72.2102,82.3775 77.3768,87.2108 83.5,91C 86.1667,91.6667 88.8333,91.6667 91.5,91C 98.5,84 105.5,77 112.5,70C 117.976,68.9741 120.143,71.1408 119,76.5C 111.86,84.9729 104.027,92.8062 95.5,100C 91.5935,101.434 87.5935,101.767 83.5,101C 78.496,98.9102 73.8293,96.5768 69.5,94C 56.4658,104.385 55.1325,116.052 65.5,129C 64.171,132.994 61.5043,134.327 57.5,133C 47.9575,123.052 46.1242,111.885 52,99.5C 55.1426,94.7109 58.6426,90.2109 62.5,86C 56.8323,79.1652 54.6656,71.3319 56,62.5C 63.6719,53.9954 71.5052,45.6621 79.5,37.5 Z"/></g>
<g><path style="opacity:1" fill="#ad4333" d="M 291.5,44.5 C 299.28,43.4499 303.78,46.7832 305,54.5C 306.164,52.3512 307.33,50.1846 308.5,48C 310.902,47.1859 313.235,47.3526 315.5,48.5C 311.497,59.2003 308.997,70.2003 308,81.5C 312.954,78.2147 317.62,74.548 322,70.5C 324.796,63.1191 326.963,55.6191 328.5,48C 331.167,47.3333 333.833,47.3333 336.5,48C 337.059,48.7247 337.392,49.5581 337.5,50.5C 334.95,58.8114 332.616,67.1448 330.5,75.5C 329.73,79.1925 331.063,81.5259 334.5,82.5C 339.496,79.6695 343.329,75.6695 346,70.5C 350.349,63.8032 352.349,56.4698 352,48.5C 356.506,45.1917 359.673,46.025 361.5,51C 354.045,77.2311 347.711,103.731 342.5,130.5C 338.072,132.252 335.406,130.752 334.5,126C 338.777,111.27 342.277,96.4372 345,81.5C 339.304,90.3322 332.304,91.6656 324,85.5C 322.928,82.7821 321.762,80.1155 320.5,77.5C 315.476,81.6912 310.31,85.6912 305,89.5C 302.486,103.042 299.152,116.375 295,129.5C 293.424,136.441 289.257,139.274 282.5,138C 273.215,128.715 271.382,118.215 277,106.5C 283.402,99.4272 290.402,93.0939 298,87.5C 298.681,85.4708 299.014,83.4708 299,81.5C 294.609,86.6166 289.109,88.7833 282.5,88C 278.133,85.445 275.633,81.6116 275,76.5C 270.376,83.883 263.876,87.7163 255.5,88C 253.641,86.4422 252.141,84.6089 251,82.5C 245.785,89.0173 239.285,90.8507 231.5,88C 229.622,86.4571 228.122,84.6238 227,82.5C 225.139,70.7897 227.306,59.9563 233.5,50C 236.014,48.7475 238.68,48.2475 241.5,48.5C 238.351,56.946 236.018,65.6127 234.5,74.5C 233.859,82.0105 237.192,84.5105 244.5,82C 246.333,80.1667 248.167,78.3333 250,76.5C 249.327,66.8826 251.327,57.8826 256,49.5C 258.381,48.565 260.881,48.2317 263.5,48.5C 263.328,52.534 262.828,56.534 262,60.5C 260.332,65.6549 258.832,70.8216 257.5,76C 256.905,79.2241 258.072,81.3908 261,82.5C 263.752,81.4137 266.252,79.9137 268.5,78C 270.293,75.2047 272.46,72.7047 275,70.5C 276.762,59.2765 282.262,50.6098 291.5,44.5 Z"/></g>
<g><path style="opacity:1" fill="#fdfbfa" d="M 292.5,50.5 C 295.044,50.1043 297.211,50.771 299,52.5C 304.932,62.9872 303.432,72.1538 294.5,80C 290.526,82.3645 287.026,81.8645 284,78.5C 281.715,67.5276 284.548,58.1943 292.5,50.5 Z"/></g>
<g><path style="opacity:1" fill="#fcf8f7" d="M 178.5,54.5 C 180.527,54.3379 182.527,54.5045 184.5,55C 185.652,64.5582 182.652,72.7248 175.5,79.5C 172.639,77.02 169.306,76.02 165.5,76.5C 166.475,67.1899 170.808,59.8566 178.5,54.5 Z"/></g>
<g><path style="opacity:1" fill="#ae4535" d="M 89.5,56.5 C 97.7038,56.1863 100.871,59.853 99,67.5C 94.2049,73.0894 89.8715,72.7561 86,66.5C 85.3333,64.5 85.3333,62.5 86,60.5C 87.3756,59.2949 88.5423,57.9616 89.5,56.5 Z"/></g>
<g><path style="opacity:1" fill="#fbf6f5" d="M 293.5,97.5 C 294.586,97.62 295.253,98.2867 295.5,99.5C 293.156,108.544 290.656,117.544 288,126.5C 286.522,129.993 284.522,130.326 282,127.5C 280.344,119.521 281.677,112.188 286,105.5C 288.705,102.964 291.205,100.297 293.5,97.5 Z"/></g>
</svg>